<mxfile host="app.diagrams.net" modified="2023-02-28T08:07:12.638Z" agent="5.0 (Macintosh; Intel Mac OS X 10_15_7) AppleWebKit/537.36 (KHTML, like Gecko) Chrome/110.0.0.0 Safari/537.36" etag="y_xykWQG7WjbBI8itmG8" version="20.8.20" type="github">
  <diagram name="第 1 页" id="ze22VWTsD4kCWaimhouh">
    <mxGraphModel dx="2074" dy="35" grid="1" gridSize="10" guides="1" tooltips="1" connect="1" arrows="1" fold="1" page="1" pageScale="1" pageWidth="827" pageHeight="1169" math="0" shadow="0">
      <root>
        <mxCell id="0" />
        <mxCell id="1" parent="0" />
        <mxCell id="S8BD8IEn20diP9MyZOvY-1" value="" style="shape=image;verticalLabelPosition=bottom;labelBackgroundColor=default;verticalAlign=top;aspect=fixed;imageAspect=0;image=data:image/png,iVBORw0KGgoAAAANSUhEUgAAAOEAAADhCAMAAAAJbSJIAAAAe1BMVEX///+VzwCQzQDx+N3W7LKj1T+d0iqx21nk8sbm88rD44fE44mNzACRzgCWzwCZ0QDL55P8/vf3++y13WPW7Kvz+uL8/vj0+ubQ6Z3f8Lyt2U+84HTU66b5/PHh8cCq2EfB4n7q9dOm1ziZ0Ru23mK43m3O6Jik1i/t99eGV6lBAAAHgklEQVR4nO2dbXeiOhCAJVBfaoCKWt8Vxdr+/194iXYVdAbCEibZe+b5sudsNWceMiYxiUmvZ4ZV1t8bKkqxz7KVweIMsAg9T/wYK+5HeF64MFacCfw8JK9vrLjvvDTpGyvOCAdViamhwt5VFR4MFWYKlaaeGBkpa6QSwrEkzdlKlacTAyV9XnN0a6Akw1zzdGOgoNTFHFUsPPXo23cZQ5UMnnM5qgjUxydqm6efkfpAB0YiMs5U5em0ZSFfKkfbFtIVE6/941+pRPBMNFidsFcfoShpUUISmfkwd8ZGpdga+MNk4Q+D7WX8nm7S9/FlGwz9BVRRA1MNclfsMlUFs9L/+avx9NCPhBSKMAyv/0oR9Q/T8ao8NJupJMh2lCE3ZVgejoy2gyg3UuMdCPWnaLC9j4RuA6OhndB1eXTXyWwQSlSuqCnDwez64V2bHNx2hspTscz1PA27h6WXSy5VAmS2BWo5Xpt7T2jb/eH3fUfbAvWMm8sVNN9th19L8h61EMx707RNd9o9SfoX6flUi57Ljh+t/W6OH7ZFEFaxCb+rY+zYRNuVZGrKTyGnzqVqEJkUzKsxcusr4ueXNOqnkF+ftrUe+JnZCrwhMmdmTFcd6N1wpMG5dFGBN4QT/cbG/EfwgfyyrXebOeoQYV0R6gWljPPv8E1VpIglkA6tJ+9aAtSgWO/zZv4n1f92eH1X+pN3Ovs1UJ7VWkyBh/6np573Gwj257/vCl7/JlNLdr3f1ZincB4NfKL/PaowA7kCyrS2SjN6TcRwUPh7oNvKyuIIbQCUambVrjEJFGsxls9M0zArjs9G0HOxMw5/A9qSsDSWnOq1NuVlik+o2DdatRtL6FnHpZdsNA3Lk9wx8BK5pFS74YPBCgN1CPek9KPwNRh9aVFlAtUGRFxcwtiD7RO4GtIpATJmKQYy0x3XiOJKxxp+jaT+noE1k4VlmYWmn+KxqD3DuhjiyfAtWj3iT/fs6+aoIvb1C6ahInp5CJLdbrRpNvQWm9FulwSHikFCXB+WOfAnfY1WxJ5sNvDOmxLpxWF1sZSVeGoYvhlOdILHbr/1YhCuS2mOVUwTki3wa/fkpompZlCHXc49VSGplvgbTlCYg2yN31aSknWJO1tJmqcpzVabvZ2+QiFo9oN1OItfa3ghMTzbamjyHvFMYmhnyHaDZuCmO4PWBSRfEnftNsy0I6JoTBtMZXdgSDFxOhc2mdcH2JpdYBOnd9cyDMMwzD/H8eO8PqzPl9cpyvnpzR6n1zHN8XKN9KPZZOo2vv3QJRQimj39zbf39TAP6HmhdBbdI431Z/1HWXEmRmblnRDw4i8VfoNIUZbPsxTlJRGHDF8WiITWcj+wA6G0ZccdQ2jDkobiCppnKs5xOWMIzvmJ2sXwHTxHUdjT44ohsh+p9teLH/BUYWGzriuG9ZHCYF2BcM4Qm7UNqwWBnYE3Hss+jhiiC2A121LQtc/Hso8jhilah9XrqG9o0fetQI4YIhuLcqp3+eGzvffZZkcM8Zn36lljvOj7AUKOGFbssWZDBDYkgg0VbIjAhkSwoYINEdiQCDZUsCECGxLBhgo2RGBDIthQwYYIbEgEGyrYEIENiWBDBRsisCERbKhgQwQ2JIINFWyIwIZEsKGCDRHYkAg2VLAhAhsSwYYKNkRgQyLYUMGGCGxIRGtD/OyZf8cwqjTEf4lyv77WEcMD+pLqs6TQ86kfJ1I7YqgRKQh6fPPjAlVHDLHDqMsHS7+Cnhgo70duO2I4QSOt+ZkscvNW4aYQRww1IoWZw+lduOncFcMFEmntWVngD4hl4bxCVwx7FyhPde5PAmq/dNWLM4bgJTda9+4MXs5iKL3NHcPXyhCDnhYfpVtgw6eKd8iwJtIK/PP9uiYhp08Hprhk2POnhUjPTe7A8JfX8Vt0Wr40TU4Z5o3/8nQdTJ+Wze/42M3BvtMxw4pI/xYHDQ3DhmzIhmzIhmzIhmzIhmzogmGTC+PMs6gPsDXat4t2QUZyH5JNw359eAZAz4LrHqLrkMDrbGmQRBcD20tTqnss0eMju4buLlLgBnQKBN19skmTa9PN0Se8u9rOuIb00uNFnzpRRZ9iOFMk9SgdhZcS++UsNpkUIrxTFWAIo/cWIWS2oa7AG5PjZfw1uIM3PwMMdPtO//Gar/HlOKkPhgJ0Lw56SdMcTXTCi3H1SZrfN11xRTVhx6CNj4500IVL5NDxHEnaM2iCD8jFO/KWMW5IdWtsE9gQgA0dgw0B2NAx2BCADR2DDQHY0DHYEIANHYMNAdjQMdgQgA0dgw0B2NAx2BCADR3D7MrMD2nsevz/V9d2MVoh2F4tPLFjoz/VMgV6BkCEhYtcIF17aoAtAqRGKsLFHkrNqQG2mCA1IvANhSPkg5g5sjXhGbgSxbniLfCxAdLNKuxhO/qqmsUd+EwOFe+wy6T/+rmqyFEFkKehqzmqSE5PAYde3eBkGD09FXFysS98sCn9Ql6+1e/WWrwVP76hqL443AGOA/krKeR3UP/6nOD790f1oZCDY8fxmSCZTU9Z9L1e6o8tf5br7yg7TWcdJOh/HTOv2K18DW8AAAAASUVORK5CYII=;imageBackground=none;" vertex="1" parent="1">
          <mxGeometry x="150" y="1530" width="100" height="100" as="geometry" />
        </mxCell>
        <mxCell id="S8BD8IEn20diP9MyZOvY-2" value="" style="shape=image;verticalLabelPosition=bottom;labelBackgroundColor=default;verticalAlign=top;aspect=fixed;imageAspect=0;image=data:image/jpeg,/9j/4AAQSkZJRgABAQAAAQABAAD/2wCEAAkGBxAQEBAQDQ8QFg8OEA0TFRIPDw8PEBIVFRUWFxUVExYZHSggGBolHRUWITEhJikrLi4uFx8zODMsNygtLisBCgoKDQ0ODg0NDy0ZFRkrKysrKystLSsrKysrLSsrKysrKysrKysrKysrKysrKysrKysrKysrKysrKysrKysrK//AABEIAOEA4QMBIgACEQEDEQH/xAAcAAEAAgIDAQAAAAAAAAAAAAAAAQgGBwIEBQP/xABBEAACAgECAgYGCAMFCQAAAAAAAQIDBAURByEGEjFRYYETIkFCcbEIFCMyUmKRoWOi0XKzwcLwFyQzNDVDU4KS/8QAFQEBAQAAAAAAAAAAAAAAAAAAAAH/xAAWEQEBAQAAAAAAAAAAAAAAAAAAEQH/2gAMAwEAAhEDEQA/AN4gAAAAAAAAAAAAAAAAAAAAAAAAAAAAAAAAAAAAAAAAAAAAAAAAAAAAAAAAENgScWzoa1rNGHTO/KsUKq1zb7d/Ykva/Arr0+4r5ee51YrlTiPrR2jLa2xd837N+4Dd/SLiJpeC3G/KjK1b/ZU/a2J9zS7PMw/F42VX5VGPjYdm1+Rj1de2xQ2Vk4w62y3799ivTZk3DXGdurafHbfbJrk9l+D1t/5QLdIkhEgAAAAAAAAAAAAAAAAAAAAAAAAAAAAAA+V1sYxcpNKMU22+xJLdtn0ZrHjx0ieLp6x6ntbmz6jafrKtetJ+b2QGpOKPTezU8lxrk1h0Nxqgn6sufOx97fySMH3OTIChtr6PWhu3MtzJR9TGr6kX/En2+e3zNXafh2X2wppi5W2yUYxXtbZbPoB0ZhpmDVjLZ2fftklt17ZfefwXJeQRkiJIJAAAAAAAAAAAAAAAAAAAAAAAOO5878mFcXK2cYwXbKclGK83yA+wMQz+JmjU8pZ9Mn/Bbu/ePI8//bDou+31ifx9DPYDPwYrpnEPSclqNWfQpPZKNsvRNvuXW23MnrsjJbxkmn7YtNAcmVt+kDqPpdUVO/q41EFt3Sm25f5SyRV/idpOXkaxnSpxcmcZWwUXXRbNPauC5NLs3A1+kfbHx5WSjCuLlObSjGKblJvsSM96P8IdVyWnbUsevfnK97T8oLmbn6E8OcHS16SMfSZO2zvt5uPf1F2QXj2hXicI+HH1CP1vNSeZOO0YcmqIvu/O/abRSMb1Xp1peLur86hTXuQmrZ/pHcxq/jXpMXtF5EkvejS9v3CNlA1tj8atIk9pu+HjKlv5GTaP050zL2WPm0Ob9yU1XP8ASWwGRghMkAAAAAAAAAAAAAAAAAfOyxRTcmkkm220kkvazlJ7c2V64wcSZZM54OBZtiwco22R3Tukns4p/g+YGR9POM0KZSx9JSssjupZE/8AhRf8Ne81+hpXXdfys2bszL7LJN7+vJ9WP9mPYjzNyAqQQAOSZ7Gg9J83BkpYeVbWlv6kZt1vfvg/Vf6HigDcuhcdr4JRz8WNiW3r0v0c38YvkZRHjrpfV3dGap/g9FS/39JsVz3CYG69c48yaawMNR39/ImpS/8AiP8AU1pr/TTUc7dZWXbKD3+zjJwq+DguT89zH2yAJG5AAncnc4gDN+h/ErUNPcYq1246a+xuk5LbuhJ84ssL0K6b4mq19bGk42wS9JTPZWQ/qvFFRDv6Jq1+HfDIxZuFtb3TXY++Ml7U+4C6O5Ji3D3pdHVcNZCh1LYPqWw2eymkt+q/an2mUhAAAAAAAAAAAADhY9k2+xJv4bAa0439MXhYqxaJ7ZOZGS3XbCrslLwb7F5lbW/0Ml4i668/UsnI39Tr+jr7lXDdRS/d+ZjDC4AAKAAAAAAAAAAAAAAAAmJsHhfw6s1Sz016ccGtvrT7HbJe5Dw75ew8PoB0Ts1TMhjwe1UdpXT/AAQT57eL7EWw0vAqx6oUUQUaqoqMYpbbJf4hDStNpxqoU41cYVVraMIJJLx5dr8TuABAAAAAAAAAAAQzG+I2q/VNLzb09pRplGL/ADWbQj+8kZKay+kHl+j0mMF/38vHg/glOz51oCtkzicmcQoAAoAAAAAAAAAAAAAExIOxp2M7bqqk9ndZXXv3deSj/iEWU4H9HY4umwvnH7fN+1b9qg/uLw5LfzNipHyxKVXXCuK2jXCEUl2JJbI+wQAAAAAAAAAAAAADUn0kP+n4vd9cX91YbbNUfSNhvpuNL8OdWn503f0ArqQSQFAAFAAAAAAAAAAAAAA9Xop/z+Dv2fXMT+9ieUfbDyHVZXbH71U4TXxi018gi7aJOtp+QraqrI/dsrrkn27qUU18zshAAAAAAAAAAAAAAMB444bt0XIaW7pnj2rbwmlJ+UZSfkZ8eT0r0/6zhZWP/wCbHugvi4vYCmhB9LYOLcX2xbT8GuTPmFAAFAAAAAAAAAAAAAAlEAIs5wO19ZOmQolL7XCbqa7H1O2t/o9vI2KVD6BdLLdLy4ZFe7rbUba/ZOv2+a7UWv0bVacuiF+NNTqsSaaf7PuYR3gQSAAAAAAAAAAAAhkkNAVJ4naM8PVMurbaErHbDxhZ6yf6tryMUN9/SI6P9aujUK4rep+ht2Xuy5wb+D5f+zNCsKgAAAAFAAAAAAAAAAAAARMXsZX0G6dZWlW9amXXom/tKJN9SX5l+GXiYmALa9D+n+BqcV6C1Qu29ai19WxPw35SXijLNyn3QbSJ5udjY9bac7E5SjycIR5yafs5cvMt9TWoqMV2RSS58+S2594R9AAAAAAAAAAAAAHmdItJhmY12Nat4XQlH4Pbk/JlPdX06zFvtx7k1ZTOcHumt+q9t14PtLqM0hx/6Jfd1OiPZtXftz5PlGb+QGjQSyAoAAoAAAAAAAAAAAAAHKKIPX6KaJPPy6cWpc7ppSfsjD3pP4L5hG4/o9dG3Cq7ULY87pOqrde5H78l4N8vI3MjqaVp9eNRVRTFKumEYRS7kjuBAAAAAAAAAAAAABB1tRwa76rKboqVd0ZRlF+1M7RAFQunnRWzS8yzHnu63vOqb9+vfk9+9djMcZbTiJ0Or1XFdb2jkVbyps25xl+Hf8L5blVdT0+3GtsoyIOFtUnGUZcnuvau9eIHUBLICgACgAAAbDYAAAAByiAiixXA3oX9UoedkQ/3nKhtBPfeultPb4yaTNfcIeH8tQujlZMX9Somns1yunF/dX5e8spCKS2S5Lu5BHJEgBAAAAAAAAAAAAAAAAEbGD8SeHdOq19eLVeZXF9S3b1Zfls714+wzkhgU16Q9HcrAsdWZTKE12PbeEvGMuxnk7F09V0nHyoOrKortrfu2wUl5dz8TB8zgto1j3jXfXz32qyJbfzqQFZEj2dA6L5udJRw8aya5by6rjWvjJ8ix2mcJtGokprE9JKPZ9Ytstj5wb6r/QzTHx4VxUK4RjFdkYRUUvgkFrRWicBbppSz8yNba510Q9JJPucm0v2PehwEwPbmZj+HoF/kZtzYkI1BfwEwtn6PNylL2Oapmt/FKK+ZgXSXg/qeJ1pUxjkVLd9an1Zpd7gyzhDQFJMiiUJOM4yjOPbGScZL4pny2Lj690UwM6PVzcSmzk0pOPVsX9mcdpLyZiF3BPR5PeMcmK/DDIbj/Mm/3C1WhL/Xf8DZXDrhVkZ8o35sZVYa2fPlZcu6K91eJujQOG+k4UlOjEjK1dll7ldNeMes9o+SRlkVsEdfTcGvHqhTRCMKqoqMYx5JJHZJAAAAAAAAAAAAAAAAAAAAAAAAAAAAAAAAAAAAAAAAAAAAAAAAAAAAAAAAAAAAAAAAAAAAAAAAAAAAAAAAAAAAAAAAAAAAf//Z;" vertex="1" parent="1">
          <mxGeometry x="150" y="1715" width="105" height="105" as="geometry" />
        </mxCell>
        <mxCell id="S8BD8IEn20diP9MyZOvY-3" value="" style="shape=image;verticalLabelPosition=bottom;labelBackgroundColor=default;verticalAlign=top;aspect=fixed;imageAspect=0;image=data:image/png,iVBORw0KGgoAAAANSUhEUgAAAOEAAADhCAMAAAAJbSJIAAAAkFBMVEX////pPjDoLhv3w8DpPC7oKRP84d/oMiHzpKDqRzr+8/PpOivpOy3oNSXoLRr86ej+9fTwi4X85+bsXFH62Nb4y8j0q6b2urb/+vnve3P1sa3nJQ3tbGP97u3whX7znpnrUEPsYVjvfXbucmrrVUnqSTz50M373dvxj4j1r6rxk473wLzsX1XnFADtbWXxmJLp+U1AAAAJp0lEQVR4nO2daXviOBCEwRgUMDZnwNwQjrAkk/z/f7f2kOzMhi6BQ7Xt2dX7eZ4RHYNUqj5cqTgcDofD4XA4HA6Hw+FwOBwOh8Ph+M/wWCsxL4wIN3WvtEQ/GBE+hdXS4jcZEfZKHGEwYES4MkXHgQm2jAj/KnGEYY8RYc0rOg6MWTEiHEZFx4ExI0aEjRJ/S70xI8J+4BcdCCR6ZES4aJY3wnqDEWG8bhcdCKS+YERYGQRFB4LwwxYlwnlpI2zvu5QIJ6WNMBjElAiPpRWmwRslwMpDaQ/E8IkT4bi0si08ciJ8LG2EHFlaqRzKG+FfnAgbpY3Qq3EibJmyyrZoyImwUtYIfUORpQl+WSMM+qQIdyUVNX6TI0vLK0zba45oq1SWJZVtHC8xpax+YjBnRTgtaYQsWVpeYcqSpYkwLamfaB5YET7Xi45FxqPk1lIWs6JjkfEoXmJKjJ9hu64OPow9liy1yLb27rmhTH8LQ/RYstQi29p7lqrAQEXlG5Zosy0S8BZBQLvWN7xFcKKbZDpbwJa7X+WtcsIR8n4KAJw2CXa8VbAw5SR/bODUF8stTcGJbk4CzwZOX4ZL3iovUJhykrA2hvAwZnmJ+a0ig8sIzJS3Sh9GyCmGsGH5hdBkabKfhfDXTilosZHPLtfCOzbNSEDgkqz6M2+VGMo2TmGZDaw2Zkw9tYERRsRVRLDRFzE1Mdb3M2XpHWNZShRtVmHKsp0B3SaSpUzRZhOmtOQIoIW3cZqXmIIT3REpwYVY4KOYKNpsfqK2MG3gCE/MdQ7QT5SEaX/1QAMfhzwvMWUIn6H0l2z8MDRwyoQpS5PPjH/vk8t/vcjFQWaluD8+M3Tbgo3wr3Op16xTd/EYC9P15b/u7vOoZqx3mBFWsB0kCFMsY4n4IdcEw9rJF8oD80ga81LcZ95ghKEg2yY5JI2DHVcRw0S3b4RbWh5pcWmLu4d37CUcLv81lrHECMnuAk50S15CHvWaXFma1fGa5pAW58pSqzAV/MQ80uJcWWpLdEt+Yh6NROxLDU50h4Iwfc6h1i8Sdri7gBFKV+08GokM21yIsjimi6p6hH7IzutBQ6i9vpRtsb709qvs3Cx2TKWldoHPAUfYZNuYUGr6RhCm8yaHPQyxvSYHmDHR3W1R6PbxzfuVHaHFT1RMdPdzTHphIabpJw5zSXGfsQhTxUQ3bmbhJ5+xMA3f2Wv9Av9dPaqXmNIpJNE9wtdSejahiyMUhCmLd5wRYsvSSjeTY8oC2yHMFPcZXF7G63q4xJKZ5RfUYdkW6EUIF63O+Ithh7DOaagWsFRIePzVLFUfXHv9N1rwjtLe81ezbGtqie5sCaF7wcKUfzR90sdpS1q7zC8siW66vPjE4n8pCCnsEOoJU8uaZC8xJa+Sgd+xXGgUvjd96BDqybZ8f/vYP+Nftz/Jt1CphWWbWn0ilqUzjTMYD+Lx9wnrlN1PBimvr6+bn8x/8va2/ckk5SlleaaXcDwee9LXDsvSSENHYY1YbZ8JrhJCZtIAiFdsYWpo4a1q2lPaOrCxrHOf0U1dS/e9GDttKndS3Y5u6YLSzZTwuh/Vjm7xh2URGSrekOqESLHmP29/T3UQj/i1y7sZ6Rl/SwOpfzdTClFsrce/Cx2fvWPZ2RadC7KNWxTvCpZcCd1LTOniRkCxcQYe1xJiDxMeFBfpNHZC6S3n8jLNkBaLRaHGEIvpCFgqMCWVmOX89I2kpC3NJDrtx9gx9aXPl2VeiN+UPrLlS6NjYOJEt1gXkaUwSh7xCLdjrY45fB8VxzdgRSJ8ZKn/Jc5Uw8MAp7rERDf+gJeI5qAloafkm2RtnMlQ+mUkFfaMRZtSytKS6Ba9vQz17OKfyOIlKvVX44pDeZxRhiuzVGhskaVaHrSlo1v02HGm4ytisbili1urwMWyt4nFLXhnuogwkI5D/BcSHzkDL5upgL9lFxGKfiSUffIjZwBvC7LGwJMYLv5CYsMrnooTamUsLTpR6l/B7Z8XEYrfcrycWl4dGrS+kX5HXWOCG+pM/SCciXtxLqN3/o0l0S3eZg6rt2ZkQkuU7dDU/c1yKn3rupYfhVaElhEVaHNrNabLdd0LL2/PfmCi2Xo5GqKLUKeACh5LDZZ1zMii9j6IvORh+p/BhV5k5g+P1u4z3Leql87DwvT62Ol4ONquTfIwQ89rbk616zZEtt5jDvcKxbjx0pv3xs+3XV+LSKvnm+guYgaAZb6BQvFHEXXXLewnKuxu2EvkdnH/Du7R1jihLPNU1MrMLLNiAv5qhczEgf3OGsWQOMWtUJf4iWVmE92i7eLaD4W6xE/ymbt1plVA/U6+EyIXuAZLcUacJaFHnH93xuIK0cZ4X4L9xHBFziTEFhGsOKvR0sEcNucj2kHcmE72ltE7im1IDYuNndz3vHA7vTt1uRgvfc+zXZs1W8mudTAnUc6ay3HnuyfyonbczTx4L/xAJ8V9Bk+I/EU7uQAOlrXMSdrF42ljovCGTIDm7OIbX4WY3uGD3fHx9kd5WL36kWB1iESa86dvfxViEmU0260OV7fYePiwmUXm9g5+39ecIZ5xeFBg6uHbwxB+orgxmlTrJtt/qpXiPpN9eFBqqTW3I0HUNcaTtWeubSuXBK+a4za/9yrEdmCMPxn/tvksXpZNYz0SLBESx3hfcns66St+6M2qvXEnPRJO6+RIaGd+eB9oOCa/uD2dBKKMXue3HQmWCBVlKeFViH5w99gT3RHi2KXND+5EyK/0S/DWIN2ZsN0yRKg71xcO4skN3ksPZYp/FaJcJsij+FchsidCfgU7pnmhlwA+U/yrELXfVVD8qxC1Ki8/Kf5ViLqytAyvQtRLcZ8p/lWI2u/uyVLarAPfXf83rcJfhaj9Dq145mUwjdikJt4P5ddNVOLDalO92fhjEoRRMDg9atpQ//Bh3uYxeP0DP/Tqu152m/muKGvH/T1uS4boAjML7kgV3BXl+OnbjtnN0ZkqId1zD43pZB19w/W8Kbqo+cZL2d1B9/lhG2R1rq/QDiNvvsJuef7Eh4fBjLPFpkfCbP+ez6aZjfjxNAjujDKJLtwtayV6dl/p1HoDewbX8vBCL9otX3I9Er5HZ9xrXs/kfokuMPXgadov4kj4Hv3pJPBuKtX/qACYS+mpsjMcbZvXUp9pIrW6WQ3/nGf3hdZw9RZG6CBJjgSzOR3UX5qsTeuw2l0cJH47PRJOZd40s9GtHdfhP10XSXRmv3z545/dV/ovy11ykIQmWk+KVZqKxP3p03Z0YzeCw+FwOBwOh8PhcDgcDsf/ir8BKPzP3ayylzcAAAAASUVORK5CYII=;" vertex="1" parent="1">
          <mxGeometry x="150" y="1910" width="100" height="100" as="geometry" />
        </mxCell>
        <mxCell id="S8BD8IEn20diP9MyZOvY-4" value="客户端" style="text;html=1;strokeColor=none;fillColor=none;align=center;verticalAlign=middle;whiteSpace=wrap;rounded=0;sketch=1;fontSize=30;fontColor=#FF66FF;" vertex="1" parent="1">
          <mxGeometry x="96.87" y="2040" width="190" height="40" as="geometry" />
        </mxCell>
        <mxCell id="S8BD8IEn20diP9MyZOvY-5" value="&lt;p style=&quot;line-height: 140%; font-size: 30px;&quot;&gt;&lt;br&gt;&lt;/p&gt;" style="rounded=1;whiteSpace=wrap;html=1;shadow=0;glass=0;sketch=1;fillWeight=2;hachureGap=12;hachureAngle=-41;jiggle=1;curveFitting=1;simplification=0;strokeColor=#666666;strokeWidth=2;fontFamily=Architects Daughter;fontSource=https%3A%2F%2Ffonts.googleapis.com%2Fcss%3Ffamily%3DArchitects%2BDaughter;fontSize=30;fontColor=#666666;fillColor=#95D2F5;" vertex="1" parent="1">
          <mxGeometry x="120" y="1509.0600000000002" width="166.87" height="516.87" as="geometry" />
        </mxCell>
        <mxCell id="S8BD8IEn20diP9MyZOvY-6" value="&lt;div data-docx-has-block-data=&quot;false&quot; data-page-id=&quot;YryQdU29Po9q7IxQrlscAarinKb&quot;&gt;&lt;div class=&quot;old-record-id-PkISdi8QQou2Q6xSksucyYt1n7e&quot; style=&quot;&quot;&gt;&lt;b style=&quot;color: rgb(51, 51, 51); background-color: initial;&quot;&gt;uad-api-comment&lt;/b&gt;&lt;br&gt;&lt;/div&gt;&lt;/div&gt;" style="rounded=1;whiteSpace=wrap;html=1;shadow=0;glass=0;sketch=1;fillWeight=2;hachureGap=12;hachureAngle=-41;jiggle=1;curveFitting=1;simplification=0;strokeColor=#666666;strokeWidth=2;fontFamily=Architects Daughter;fontSource=https%3A%2F%2Ffonts.googleapis.com%2Fcss%3Ffamily%3DArchitects%2BDaughter;fontSize=30;fontColor=#666666;fillColor=#95D2F5;" vertex="1" parent="1">
          <mxGeometry x="800" y="1490" width="300" height="140" as="geometry" />
        </mxCell>
        <mxCell id="S8BD8IEn20diP9MyZOvY-7" value="&lt;div data-docx-has-block-data=&quot;false&quot; data-page-id=&quot;YryQdU29Po9q7IxQrlscAarinKb&quot;&gt;&lt;div class=&quot;old-record-id-PkISdi8QQou2Q6xSksucyYt1n7e&quot; style=&quot;&quot;&gt;&lt;b style=&quot;color: rgb(51, 51, 51); background-color: initial;&quot;&gt;uad-greatwall-api&lt;/b&gt;&lt;br&gt;&lt;/div&gt;&lt;/div&gt;" style="rounded=1;whiteSpace=wrap;html=1;shadow=0;glass=0;sketch=1;fillWeight=2;hachureGap=12;hachureAngle=-41;jiggle=1;curveFitting=1;simplification=0;strokeColor=#666666;strokeWidth=2;fontFamily=Architects Daughter;fontSource=https%3A%2F%2Ffonts.googleapis.com%2Fcss%3Ffamily%3DArchitects%2BDaughter;fontSize=30;fontColor=#666666;fillColor=#95D2F5;" vertex="1" parent="1">
          <mxGeometry x="810" y="1880" width="300" height="140" as="geometry" />
        </mxCell>
        <mxCell id="S8BD8IEn20diP9MyZOvY-8" value="" style="edgeStyle=orthogonalEdgeStyle;rounded=0;sketch=1;orthogonalLoop=1;jettySize=auto;html=1;strokeWidth=2;fontSize=30;fontColor=#FF66FF;strokeColor=#333333;entryX=0;entryY=0.5;entryDx=0;entryDy=0;" edge="1" parent="1" target="S8BD8IEn20diP9MyZOvY-6">
          <mxGeometry relative="1" as="geometry">
            <mxPoint x="630" y="1550" as="targetPoint" />
            <Array as="points">
              <mxPoint x="600" y="1760" />
              <mxPoint x="600" y="1560" />
            </Array>
            <mxPoint x="290" y="1760" as="sourcePoint" />
          </mxGeometry>
        </mxCell>
        <mxCell id="S8BD8IEn20diP9MyZOvY-9" value="" style="edgeStyle=orthogonalEdgeStyle;rounded=0;sketch=1;orthogonalLoop=1;jettySize=auto;html=1;strokeWidth=2;fontSize=30;fontColor=#FF66FF;strokeColor=#333333;entryX=0;entryY=0.5;entryDx=0;entryDy=0;" edge="1" parent="1" source="S8BD8IEn20diP9MyZOvY-5" target="S8BD8IEn20diP9MyZOvY-7">
          <mxGeometry relative="1" as="geometry">
            <mxPoint x="650" y="1940" as="targetPoint" />
            <Array as="points">
              <mxPoint x="810" y="1950" />
            </Array>
            <mxPoint x="265" y="1770" as="sourcePoint" />
          </mxGeometry>
        </mxCell>
        <mxCell id="S8BD8IEn20diP9MyZOvY-10" value="" style="edgeStyle=orthogonalEdgeStyle;rounded=0;sketch=1;orthogonalLoop=1;jettySize=auto;html=1;strokeWidth=2;fontSize=30;fontColor=#FF66FF;strokeColor=#333333;entryX=0;entryY=0.5;entryDx=0;entryDy=0;" edge="1" parent="1">
          <mxGeometry relative="1" as="geometry">
            <mxPoint x="800" y="1559.5" as="targetPoint" />
            <Array as="points">
              <mxPoint x="800" y="1559.5" />
            </Array>
            <mxPoint x="277" y="1559.5" as="sourcePoint" />
          </mxGeometry>
        </mxCell>
        <mxCell id="S8BD8IEn20diP9MyZOvY-11" value="" style="edgeStyle=orthogonalEdgeStyle;rounded=0;sketch=1;orthogonalLoop=1;jettySize=auto;html=1;strokeWidth=2;fontSize=30;fontColor=#FF66FF;strokeColor=#333333;" edge="1" parent="1">
          <mxGeometry relative="1" as="geometry">
            <mxPoint x="800" y="1560" as="targetPoint" />
            <Array as="points">
              <mxPoint x="600" y="1950" />
              <mxPoint x="600" y="1560" />
              <mxPoint x="660" y="1560" />
            </Array>
            <mxPoint x="286.87" y="1949.5" as="sourcePoint" />
          </mxGeometry>
        </mxCell>
        <mxCell id="S8BD8IEn20diP9MyZOvY-12" value="" style="shape=image;verticalLabelPosition=bottom;labelBackgroundColor=default;verticalAlign=top;aspect=fixed;imageAspect=0;image=data:image/png,iVBORw0KGgoAAAANSUhEUgAAAOEAAADhCAMAAAAJbSJIAAAAflBMVEX///8AAAAwMDAODg74+Pjv7+/f39/y8vLZ2dnOzs7Kysp7e3vq6urBwcFfX194eHiqqqqfn5+UlJSKioqwsLBpaWnj4+MgICCEhIQ/Pz8UFBS5ubk6OjpycnKQkJCkpKRGRkYqKipRUVFlZWVXV1cbGxskJCRCQkI1NTUtLS3r3xNZAAAHJ0lEQVR4nO2da5uaOhCArXILEK4hopGbuFv3///BA9o9tV1hCYSM5znzfqm2T5O8BjEZmGGzQRAEQRAEWYbtc4cQl4ooTtI0z70wLMLQy/M0TeJIUJcQh/s29DCl4a6I0uJyaPa7H1PY7ZvDpUgjRh0DeuxjGLbDYq+e5DRG7SURMV9L1bdEmh0Wq/3JIcsjx4dW6+TcODhMOxZncQpil4PZWSw7ruf2wDGLHO12PMq0yP2mjfXNpUHyk2a9OyfP1XECcr09iN6dfeGuq+cngHaflOsdriSAlvtFsM5EiuU/5uqohXI/AnNyGeZKlPqZun8bptAqXPEwaJkBmCpBD9pkkFCJn/1q38BHrgr2libkD/z3vJlLBY2tkoHsjh0P7/u3arYk26ULubk/8m/nMIkZJZZpG4/Y9l/vTYtQFifh+W1mT8EywUq2v+acM2rN+1wNi7L83MjObbVE0JToaBvkVMmm3HRoHnxI9Lzkq5hO7CMoha92Y2P4NJn6DUkX9DOl/XbFDbgVtVOGML8D+k3LbxcN4QUrCr47CdHZjY8epIfc1RXKtUk6Gsqbf5ieB9s8aYya3OHx8O7tPLvV64BetXghMQsz+vl8QNfZTT5dzyjemMlBnn7o29ntPV+xveWWwjHLYOXPVwOqDfvjNNJ/XcEYOkZXMeyotZ5r/JHzzFqGHdeQ6bDkwvtmIKsZ9pyCmKz3s2iSqh04oWszvHEMYqp6Ni0Rt1M3VOsb3nlv00504bVNw/TdqGzfpXrWZfgpWrdhGbmOxaevC2zfcjqxsK3l1GAMf/PWXH+eM6+MmbjflOB02pxb3Z+32xcEi8s8u9Sn7dz9PbShNtAQDV8fNETD1wcN0fCR3eAuVBunr/t8lYbHDa8g71g4V3zz9VYzpXN4+3uaQhy/1/R+k8m6c7j7/CdOPZ0HbO393oBqMuzx3XI4ZqyOoHT/uKSl0fAGZ16zmtwpfRIJ0m14wxHpZUI8ZTrHU5DQgbAsiOEN36FJcZ61SX/gGhSd21h4AM7wjmH6NEryQHJK93VWxoyY9vdhHmjDR1nfcQVjUZLmYZFlQRBkWVF0r9qsI/TSpIqYoMSSC0e+kOFKoKEMaAgDGsqAhjCgoQxoCAMayoCGMKChDGgIAxrKgIYwoKEMaAgDGsqAhjCgoQxoCAMayoCGMKChDGgIAxrKgIYwoKEMaAgDGsqAhjCgoQxP7uZWONK5fB2UUsMQusCv8aS2mtqMkqOyMnCzEM/K3qrOmXmPoApwG+L5fbnqs4J2hZZisH/hpEN3WK+S97RvhdaZJOnIbdWrZXY1qdBSqObbalGr5q59FAlRXObrAYPTckItrPWz87YXjxHFZSM4Yd6lmdj/7F7k8reO2yBhQ2kg07FclgRbqVro2jMs389eUgnC+xKJU7rpqyf6RFRJHjSzOgTMId2fzlkR5mUcCdfpsXpurwhlVVLmYdGeT0sLiGKWLBq+PmiIhq8PGqLh66M01qb6oUfyrF41wqogn+MRxJaOqhG2OxhPWJNteS/rqykibNO80WD1SZPTf4MmGmPe3C1n14qfzvsFtmqEaUUKniY3xCVn/EvAC+K6hWGx5KJYLkiGyrzDXZkxiEjaQ7NM7PhRFxUdrYMOfu3Jdwgru537VSbU8n64ZF4syGhBjFcx/MSwfZ8T0ccqbg/o9Iqi6B/Q2b8KPc/L07RM4v7Blb5vykSXX8ZwNdBQBjSEAQ1lQEMY0FAGNIQBDWVAQxjQUAY0hAENZUBDGNBQBjSEAQ1lQEMY0FAGNIQBDWVAQxjQUAY0hAENZUBDGNBQBjSEAQ1lQEMY0FCG/6PhjxCq2sAndvh1UGozSnYxpKMRq60aMZDkny/OZp6JlT8f0HV2i4PPbzzF/vf/WzF+dRoaznl2o+lQk32rpaOvNobhJIOfdkc6u2E60mpHE0Sjt5wrwmJtMz4QOr/x8YZvXOIV65wYJJ6S5bCgh7HD9IH3IqG+2iIgtk+TYmJ21fyDdLMxp3VxY1dn5bR0glEMi4gyk8o2WtRlJdHRL9GPOksYJVzu2DU4oSzJ6g+pghg3qiWCm82iZMOmDsJbToWgLnE4575v230aBucOcalgUZyUYVA3SzoJlgluDKUPwV2B7eLznAmRTDmdvYITnD24lHgBTmoWyU9qwL0IoRK/DgZtMoDC4nhmBi3zhFbt6p+82rfxSpT69dD10n3lqRcstkcgkLUGHgncVfx6/ARarqNceffteksrcy1hX6w3fb8xSA5T/+PgaSy5yaNCs14WKy5bOAGLZfJbnTkcCy3Rkuf4bhwcvgahlXEKYlf/3H3VtERZqP5qHrKUOfpjlmMYtiNir146obvaixkxoUtOj8NdEaXF5fCxn6a7238cLkUaCaoxBKsI2+cOIYSKPlzRl44IwyLsS0fcCkb0sQ3icB/6Yg+CIAiCIP99/gHFN5OJW6JEwQAAAABJRU5ErkJggg==;" vertex="1" parent="1">
          <mxGeometry x="1460" y="1602.5" width="190" height="190" as="geometry" />
        </mxCell>
        <mxCell id="S8BD8IEn20diP9MyZOvY-13" value="&lt;p style=&quot;line-height: 140%; font-size: 30px;&quot;&gt;&lt;br&gt;&lt;/p&gt;" style="rounded=1;whiteSpace=wrap;html=1;shadow=0;glass=0;sketch=1;fillWeight=2;hachureGap=12;hachureAngle=-41;jiggle=1;curveFitting=1;simplification=0;strokeColor=none;strokeWidth=2;fontFamily=Architects Daughter;fontSource=https%3A%2F%2Ffonts.googleapis.com%2Fcss%3Ffamily%3DArchitects%2BDaughter;fontSize=30;fontColor=#666666;fillColor=#95D2F5;" vertex="1" parent="1">
          <mxGeometry x="1460" y="1595" width="190" height="205" as="geometry" />
        </mxCell>
        <mxCell id="S8BD8IEn20diP9MyZOvY-14" value="评论数据库" style="text;html=1;strokeColor=none;fillColor=none;align=center;verticalAlign=middle;whiteSpace=wrap;rounded=0;sketch=1;fontSize=30;fontColor=#FF66FF;" vertex="1" parent="1">
          <mxGeometry x="1410" y="1792.5" width="320" height="77.5" as="geometry" />
        </mxCell>
        <mxCell id="S8BD8IEn20diP9MyZOvY-15" value="" style="edgeStyle=orthogonalEdgeStyle;rounded=0;sketch=1;orthogonalLoop=1;jettySize=auto;html=1;strokeWidth=2;fontSize=30;fontColor=#FF66FF;strokeColor=#333333;entryX=0;entryY=0.366;entryDx=0;entryDy=0;entryPerimeter=0;" edge="1" parent="1" target="S8BD8IEn20diP9MyZOvY-13">
          <mxGeometry relative="1" as="geometry">
            <mxPoint x="1450" y="1670" as="targetPoint" />
            <Array as="points">
              <mxPoint x="1390" y="1560" />
              <mxPoint x="1390" y="1670" />
            </Array>
            <mxPoint x="1100" y="1559.5" as="sourcePoint" />
          </mxGeometry>
        </mxCell>
        <mxCell id="S8BD8IEn20diP9MyZOvY-17" value="" style="edgeStyle=orthogonalEdgeStyle;rounded=0;sketch=1;orthogonalLoop=1;jettySize=auto;html=1;strokeWidth=2;fontSize=30;fontColor=#FF66FF;strokeColor=#333333;entryX=0;entryY=0.366;entryDx=0;entryDy=0;entryPerimeter=0;exitX=1;exitY=0.5;exitDx=0;exitDy=0;" edge="1" parent="1" source="S8BD8IEn20diP9MyZOvY-7">
          <mxGeometry relative="1" as="geometry">
            <mxPoint x="1460" y="1740.5" as="targetPoint" />
            <Array as="points">
              <mxPoint x="1390" y="1950" />
              <mxPoint x="1390" y="1741" />
            </Array>
            <mxPoint x="1100" y="1630" as="sourcePoint" />
          </mxGeometry>
        </mxCell>
      </root>
    </mxGraphModel>
  </diagram>
</mxfile>
